<?xml version="1.0" encoding="utf-8"?>
<!-- Generator: Adobe Illustrator 15.0.0, SVG Export Plug-In . SVG Version: 6.00 Build 0)  -->
<!DOCTYPE svg PUBLIC "-//W3C//DTD SVG 1.1//EN" "http://www.w3.org/Graphics/SVG/1.1/DTD/svg11.dtd">
<svg version="1.1" id="Layer_1" xmlns="http://www.w3.org/2000/svg" xmlns:xlink="http://www.w3.org/1999/xlink" x="0px" y="0px"
	 width="200px" height="200px" viewBox="0 0 200 200" enable-background="new 0 0 200 200" xml:space="preserve">
<g>
	<g id="Instagram_1_">
		<g id="Instagram_4_">
			<path id="Head_2_" fill="#895A4D" d="M175,0H25C11.251,0,0,11.246,0,25v49.996h200V25C200,11.246,188.745,0,175,0z"/>
			<path id="Red_x5F_Stripes_2_" fill="#FF3939" d="M12.5,3.748v71.249H25V0C20.623,0,16.248,1.249,12.5,3.748z"/>
			<rect id="Yellow_x5F_Stripes_2_" x="25" fill="#FED049" width="12.5" height="74.996"/>
			<rect id="Green_x5F_Stripes_2_" x="37.5" fill="#10DD76" width="12.5" height="74.996"/>
			<rect id="Blue_x5F_Stripes_2_" x="50" fill="#5FCCFF" width="12.501" height="74.996"/>
			<path id="Lens_4_" fill="#162838" d="M162.5,18.75c10.349,0,18.75,8.397,18.75,18.75c0,10.349-8.401,18.746-18.75,18.746
				s-18.75-8.397-18.75-18.746C143.75,27.147,152.151,18.75,162.5,18.75z"/>
			<path id="Lens_x5F_Outer_2_" fill="#2C4356" d="M162.5,28.125c5.175,0,9.375,4.197,9.375,9.375c0,5.174-4.2,9.371-9.375,9.371
				s-9.375-4.197-9.375-9.371C153.125,32.322,157.325,28.125,162.5,28.125z"/>
			<path id="Lens_x5F_Inside_2_" fill="#47637A" d="M162.5,34.375c1.719,0,3.125,1.397,3.125,3.125s-1.406,3.121-3.125,3.121
				c-1.728,0-3.125-1.393-3.125-3.121S160.772,34.375,162.5,34.375z"/>
			<path id="Body_2_" fill="#E5E0DC" d="M0,74.996v100.003C0,188.745,11.251,200,25,200h150c13.745,0,25-11.255,25-25.001V74.996H0z
				"/>
			<g id="Shadow_2_">
				<polygon fill="#75483D" points="154.378,74.996 139.997,59.994 139.997,74.996 				"/>
				<path fill="#D0CBC5" d="M125,74.996l-65.006,65.001L120.003,200H175c13.745,0,25-11.255,25-25.001V120.62l-45.622-45.624H125z"
					/>
			</g>
			<path id="Lens_1_" fill="#DCD7D3" d="M99.998,43.75c31.066,0,56.252,25.182,56.252,56.246c0,31.066-25.187,56.253-56.252,56.253
				c-31.064,0-56.247-25.187-56.247-56.253C43.75,68.932,68.933,43.75,99.998,43.75z"/>
			<circle id="Inside_x5F_Lens_2_" fill="#162838" cx="99.998" cy="99.998" r="43.751"/>
			<path id="_x32_nd_Inner_Circle_2_" fill="#2C4356" d="M99.998,74.996c13.806,0,25.002,11.195,25.002,25
				c0,13.806-11.196,25.003-25.002,25.003c-13.805,0-25.001-11.197-25.001-25.003C74.997,86.191,86.193,74.996,99.998,74.996z"/>
			<circle id="Middle_Circle_2_" fill="#162838" cx="99.998" cy="99.998" r="12.501"/>
			<path id="Reflection_2_" fill="#47637A" d="M115.625,74.996c5.175,0,9.375,4.2,9.375,9.375s-4.2,9.375-9.375,9.375
				s-9.376-4.2-9.376-9.375S110.45,74.996,115.625,74.996z"/>
		</g>
	</g>
</g>
</svg>
